<svg width="35" height="34" viewBox="0 0 35 34" fill="none" xmlns="http://www.w3.org/2000/svg">
<path d="M30.2356 13.0793C27.0308 8.13461 22.3414 5.28766 17.4024 5.28766C14.9328 5.28766 12.5327 5.99599 10.3406 7.31731C8.14854 8.65224 6.17846 10.6002 4.5691 13.0793C3.18172 15.2179 3.18172 18.6915 4.5691 20.8301C7.77395 25.7885 12.4633 28.6218 17.4024 28.6218C19.8719 28.6218 22.2721 27.9135 24.4641 26.5921C26.6562 25.2572 28.6263 23.3093 30.2356 20.8301C31.623 18.7051 31.623 15.2179 30.2356 13.0793ZM17.4024 22.4647C14.2946 22.4647 11.7973 19.9992 11.7973 16.9615C11.7973 13.9239 14.2946 11.4583 17.4024 11.4583C20.5101 11.4583 23.0074 13.9239 23.0074 16.9615C23.0074 19.9992 20.5101 22.4647 17.4024 22.4647Z" fill="#5B5151"/>
<path d="M17.3997 13.0657C16.3492 13.0657 15.3417 13.4754 14.5989 14.2048C13.856 14.9341 13.4387 15.9233 13.4387 16.9547C13.4387 17.9862 13.856 18.9753 14.5989 19.7047C15.3417 20.434 16.3492 20.8437 17.3997 20.8437C19.5779 20.8437 21.3676 19.1002 21.3676 16.9615C21.3676 14.8229 19.5779 13.0657 17.3997 13.0657Z" fill="#5B5151"/>
</svg>
