<svg width="26" height="30" viewBox="0 0 26 30" fill="none" xmlns="http://www.w3.org/2000/svg">
<path d="M22.3394 10.5625C21.2019 4.7875 16.8361 2.1875 13.0011 2.1875H12.9902C9.16608 2.1875 4.78941 4.775 3.65191 10.55C2.38441 17 5.80775 22.4625 8.90608 25.9C10.0043 27.1265 11.4727 27.8123 13.0011 27.8125C14.4744 27.8125 15.9477 27.175 17.0852 25.9C20.1836 22.4625 23.6069 17.0125 22.3394 10.5625ZM13.0011 16.825C12.5529 16.825 12.1092 16.7232 11.6952 16.5253C11.2811 16.3274 10.905 16.0374 10.5881 15.6717C10.2712 15.3061 10.0198 14.872 9.84834 14.3943C9.67685 13.9166 9.58858 13.4046 9.58858 12.8875C9.58858 12.3704 9.67685 11.8584 9.84834 11.3807C10.0198 10.903 10.2712 10.4689 10.5881 10.1033C10.905 9.73764 11.2811 9.4476 11.6952 9.24972C12.1092 9.05185 12.5529 8.95 13.0011 8.95C13.9061 8.95 14.7741 9.36484 15.4141 10.1033C16.054 10.8417 16.4136 11.8432 16.4136 12.8875C16.4136 13.9318 16.054 14.9333 15.4141 15.6717C14.7741 16.4102 13.9061 16.825 13.0011 16.825V16.825Z" fill="#5B5151"/>
</svg>
