<svg width="30" height="31" viewBox="0 0 30 31" fill="none" xmlns="http://www.w3.org/2000/svg">
<path d="M22.5 0H7.5C3 0 0 2.73529 0 9.11765V21.8824C0 28.2647 3 31 7.5 31H22.5C27 31 30 28.2647 30 21.8824V9.11765C30 2.73529 27 0 22.5 0ZM23.205 11.1053L18.51 15.6641C17.52 16.6306 16.26 17.1047 15 17.1047C13.74 17.1047 12.465 16.6306 11.49 15.6641L6.795 11.1053C6.5655 10.8737 6.4186 10.5432 6.38505 10.1829C6.3515 9.82256 6.4339 9.46046 6.615 9.17235C7.005 8.58882 7.71 8.47941 8.19 8.95353L12.885 13.5124C14.025 14.6247 15.96 14.6247 17.1 13.5124L21.795 8.95353C22.275 8.47941 22.995 8.57059 23.37 9.17235C23.76 9.75588 23.685 10.6312 23.205 11.1053Z" fill="#5B5151"/>
</svg>
