<svg width="29" height="36" viewBox="0 0 29 36" fill="none" xmlns="http://www.w3.org/2000/svg">
<path d="M23.606 13.554V11.304C23.606 6.444 22.6635 0 14.5 0C6.3365 0 5.394 6.444 5.394 11.304V13.554C1.334 14.184 0 16.74 0 23.022V26.37C0 33.75 1.8125 36 7.7575 36H21.2425C27.1875 36 29 33.75 29 26.37V23.022C29 16.74 27.666 14.184 23.606 13.554ZM14.5 30.132C12.0785 30.132 10.121 27.684 10.121 24.696C10.121 21.69 12.093 19.26 14.5 19.26C15.6602 19.2647 16.7718 19.839 17.5922 20.8574C18.4126 21.8758 18.8752 23.2557 18.879 24.696C18.879 27.702 16.9215 30.132 14.5 30.132ZM7.7575 13.392H7.424V11.304C7.424 6.03 8.6275 2.52 14.5 2.52C20.3725 2.52 21.576 6.03 21.576 11.304V13.41H7.7575V13.392Z" fill="#5B5151"/>
</svg>
