<svg width="24" height="26" viewBox="0 0 24 26" fill="none" xmlns="http://www.w3.org/2000/svg">
<path d="M12 12.5028C13.6777 12.5028 15.2866 11.8604 16.4729 10.7169C17.6592 9.57337 18.3256 8.02243 18.3256 6.40525C18.3256 4.78808 17.6592 3.23714 16.4729 2.09363C15.2866 0.950113 13.6777 0.307693 12 0.307693C10.3223 0.307693 8.71339 0.950113 7.5271 2.09363C6.34082 3.23714 5.67437 4.78808 5.67437 6.40525C5.67437 8.02243 6.34082 9.57337 7.5271 10.7169C8.71339 11.8604 10.3223 12.5028 12 12.5028ZM12 15.5516C5.66172 15.5516 0.5 19.6492 0.5 24.6979C0.5 25.0394 0.778328 25.3077 1.13256 25.3077H22.8674C23.2217 25.3077 23.5 25.0394 23.5 24.6979C23.5 19.6492 18.3383 15.5516 12 15.5516Z" fill="#5B5151"/>
</svg>
